<?xml version="1.0" standalone="no"?><!DOCTYPE svg PUBLIC "-//W3C//DTD SVG 1.1//EN" "http://www.w3.org/Graphics/SVG/1.1/DTD/svg11.dtd"><svg t="1730446609510" class="icon" viewBox="0 0 1253 1024" version="1.1" xmlns="http://www.w3.org/2000/svg" p-id="12029" xmlns:xlink="http://www.w3.org/1999/xlink" width="244.7265625" height="200"><path d="M608.807839 241.547027l381.458341 0.005109 22.141811 74.92658-458.101499-0.005108z" fill="#B6D6CD" p-id="12030"></path><path d="M554.306492 316.473608h458.101499v97.073499h-492.049892z" fill="#A2B8B2" p-id="12031"></path><path d="M594.329322 336.909058H200.098825a20.435451 20.435451 0 0 1 0-40.870901h394.230497a20.435451 20.435451 0 0 1 0 40.870901z" fill="#879994" p-id="12032"></path><path d="M783.357241 214.301463c0-14.049372 11.494941-25.544313 25.544314-25.544314h66.415214c14.049372 0 25.544313 11.494941 25.544314 25.544314v59.605101c0 14.049372-11.494941 25.544313-25.544314 25.544313h-66.415214c-14.049372 0-25.544313-11.494941-25.544314-25.544313V214.301463z" fill="#A5C2BA" p-id="12033"></path><path d="M1186.957393 617.901614v132.83043l-84.296234 84.296234H312.488695l-227.768425-223.512742z" fill="#97ABA5" p-id="12034"></path><path d="M1232.937157 617.901614H64.713964L20.435451 575.324353l236.708934-161.777246h924.704145l51.088627 43.134128z" fill="#B3D1C9" p-id="12035"></path><path d="M670.962262 241.547027H1034.544693L1088.187751 316.478716l-458.09639-0.005108z" fill="#A5C2BA" p-id="12036"></path><path d="M630.091361 316.473608H1088.187751v97.073499h-479.379912zM1184.883195 617.901614v132.83043l-73.082281 84.296234H445.155641l-215.936299-223.512742z" fill="#879994" p-id="12037"></path><path d="M129.244008 651.471951h1052.604522v-33.570337H91.836916z" opacity=".1" p-id="12038"></path><path d="M1232.937157 617.901614H226.516753l-38.147877-42.577261 203.925363-161.777246h789.554291l51.088627 43.134128z" fill="#A5C2BA" p-id="12039"></path><path d="M25.544313 575.324353h162.824563l38.147877 42.577261H64.713964z" opacity=".1" p-id="12040"></path><path d="M699.735377 693.686483c-77.920374 0-141.331577 63.406095-141.331577 141.346904 0 77.9357 63.411204 141.336686 141.341795 141.336686 77.940809 0 141.341795-63.400986 141.341794-141.336686 0-37.754495-14.698198-73.250873-41.402223-99.939572-26.709134-26.709134-62.190185-41.407332-99.949789-41.407332zM379.006087 693.686483c-77.920374 0-141.331577 63.406095-141.331577 141.346904 0 77.9357 63.411204 141.336686 141.341794 141.336686 77.940809 0 141.341795-63.400986 141.341795-141.336686 0-37.754495-14.698198-73.250873-41.402223-99.939572-26.709134-26.709134-62.190185-41.407332-99.949789-41.407332zM1118.968648 739.022531c-26.709134-26.704025-62.190185-41.402223-99.94468-41.402223-77.920374 0-141.331577 63.406095-141.331577 141.346903 0 77.9357 63.411204 141.336686 141.341794 141.336687 77.940809 0 141.341795-63.400986 141.341795-141.336687-0.005109-37.759604-14.703307-73.255982-41.407332-99.94468z" fill="#8F8F8F" p-id="12041"></path><path d="M738.797741 833.061366m-120.906344 0a120.906344 120.906344 0 1 0 241.812688 0 120.906344 120.906344 0 1 0-241.812688 0Z" fill="#787878" p-id="12042"></path><path d="M738.797741 732.590473c26.841965 0 52.059311 10.452733 71.043844 29.432158a99.816959 99.816959 0 0 1 29.427049 71.043844c0 55.405616-45.065278 100.465785-100.470893 100.465785-55.400507 0-100.470893-45.060169-100.470894-100.465785s45.070387-100.476002 100.470894-100.476002z m-141.341795 100.476002c0 77.9357 63.411204 141.336686 141.341795 141.336686 77.940809 0 141.341795-63.400986 141.341795-141.336686 0-37.754495-14.698198-73.250873-41.402223-99.939572-26.709134-26.704025-62.190185-41.402223-99.944681-41.402223-77.925482-0.005109-141.336686 63.400986-141.336686 141.341795z" fill="#4A4A4A" p-id="12043"></path><path d="M738.215331 834.818815m-49.137042 0a49.137041 49.137041 0 1 0 98.274083 0 49.137041 49.137041 0 1 0-98.274083 0Z" fill="#A5C2BA" p-id="12044"></path><path d="M738.215331 806.117224a28.727135 28.727135 0 0 1 28.70159 28.686264c0 15.842583-12.879443 28.706699-28.70159 28.7067s-28.701591-12.879443-28.701591-28.7067c-0.010218-15.81193 12.869225-28.686264 28.701591-28.686264z m-69.58271 28.701591c0 38.372668 31.204933 69.572492 69.572492 69.572492 38.36245 0 69.567383-31.199824 69.567383-69.572492 0-38.367559-31.204933-69.562274-69.567383-69.562274-38.36245-0.010218-69.572492 31.194716-69.572492 69.562274z" fill="#4A4A4A" p-id="12045"></path><path d="M418.068451 833.061366m-120.906344 0a120.906344 120.906344 0 1 0 241.812688 0 120.906344 120.906344 0 1 0-241.812688 0Z" fill="#787878" p-id="12046"></path><path d="M418.068451 732.590473c26.841965 0 52.059311 10.452733 71.043844 29.432158a99.816959 99.816959 0 0 1 29.427049 71.043844c0 55.405616-45.065278 100.465785-100.470893 100.465785-55.400507 0-100.470893-45.060169-100.470894-100.465785s45.070387-100.476002 100.470894-100.476002z m-141.341795 100.476002c0 77.9357 63.411204 141.336686 141.341795 141.336686 77.940809 0 141.341795-63.400986 141.341795-141.336686 0-37.754495-14.698198-73.250873-41.402223-99.939572-26.709134-26.704025-62.190185-41.402223-99.944681-41.402223-77.925482-0.005109-141.336686 63.400986-141.336686 141.341795z" fill="#4A4A4A" p-id="12047"></path><path d="M417.480932 834.818815m-49.137042 0a49.137041 49.137041 0 1 0 98.274083 0 49.137041 49.137041 0 1 0-98.274083 0Z" fill="#A5C2BA" p-id="12048"></path><path d="M417.480932 806.117224a28.727135 28.727135 0 0 1 28.70159 28.686264c0 15.842583-12.879443 28.706699-28.70159 28.7067s-28.701591-12.879443-28.701591-28.7067a28.727135 28.727135 0 0 1 28.701591-28.686264z m-69.577601 28.701591c0 38.372668 31.204933 69.572492 69.572492 69.572492 38.36245 0 69.567383-31.199824 69.567383-69.572492 0-38.367559-31.204933-69.562274-69.567383-69.562274-38.36245-0.010218-69.572492 31.194716-69.572492 69.562274z" fill="#4A4A4A" p-id="12049"></path><path d="M1058.081223 836.990082m-120.906344 0a120.906344 120.906344 0 1 0 241.812688 0 120.906344 120.906344 0 1 0-241.812688 0Z" fill="#787878" p-id="12050"></path><path d="M1058.081223 736.519188c26.841965 0 52.059311 10.452733 71.043844 29.432158a99.816959 99.816959 0 0 1 29.427049 71.043844c0 55.405616-45.065278 100.465785-100.470893 100.465785-55.400507 0-100.470893-45.060169-100.470894-100.465785s45.070387-100.476002 100.470894-100.476002z m-141.341795 100.476002c0 77.9357 63.411204 141.336686 141.341795 141.336687 77.940809 0 141.341795-63.400986 141.341795-141.336687 0-37.754495-14.698198-73.250873-41.402223-99.939571-26.709134-26.704025-62.190185-41.402223-99.944681-41.402223-77.925482-0.005109-141.336686 63.400986-141.336686 141.341794z" fill="#4A4A4A" p-id="12051"></path><path d="M1057.498813 838.752639m-49.137042 0a49.137041 49.137041 0 1 0 98.274083 0 49.137041 49.137041 0 1 0-98.274083 0Z" fill="#A5C2BA" p-id="12052"></path><path d="M1057.498813 810.051049a28.727135 28.727135 0 0 1 28.70159 28.686264c0 15.842583-12.879443 28.706699-28.70159 28.706699s-28.701591-12.879443-28.701591-28.706699a28.722026 28.722026 0 0 1 28.701591-28.686264z m-69.577601 28.696481c0 38.372668 31.204933 69.572492 69.572492 69.572492 38.36245 0 69.567383-31.199824 69.567383-69.572492 0-38.367559-31.204933-69.562274-69.567383-69.562274-38.367559-0.005109-69.572492 31.194716-69.572492 69.562274z" fill="#4A4A4A" p-id="12053"></path><path d="M25.544313 572.769922h1207.392844v5.108862H25.544313z" opacity=".1" p-id="12054"></path><path d="M622.499591 351.086152H1088.187751v-34.612544h-458.09639z" opacity=".1" p-id="12055"></path></svg>