<?xml version="1.0" standalone="no"?><!DOCTYPE svg PUBLIC "-//W3C//DTD SVG 1.1//EN" "http://www.w3.org/Graphics/SVG/1.1/DTD/svg11.dtd"><svg t="1731485952435" class="icon" viewBox="0 0 1165 1024" version="1.1" xmlns="http://www.w3.org/2000/svg" p-id="6538" xmlns:xlink="http://www.w3.org/1999/xlink" width="227.5390625" height="200"><path d="M1060.050021 497.407087L834.03862 106.005002l52.755494-91.379588L861.5604 0.052001l-52.755494 91.327587H356.743103L303.987609 0l-25.233715 14.573413 52.768495 91.431589L105.536989 497.407087H0v29.146825h105.536989l225.9984 391.454086-52.781495 91.418589 25.233715 14.573413 52.768494-91.405589h452.022802l52.768494 91.405589 25.233715-14.573413-52.768495-91.392588L1060.050021 526.540912h105.56299v-29.133825z m-275.516803-364.010309l-48.582376 84.151383H429.597166l-48.569375-84.125382zM550.084579 484.523722l-7.436211 12.883365h-97.138751L501.515203 400.41134z m-23.400663-98.724796h112.076174l-48.569376 84.112382h-14.885421z m15.91245 140.741986l7.449211 12.909365-48.569375 84.112382-56.018587-97.021747z m32.669926 27.495778h14.911422l48.569376 84.125383h-111.998172z m40.158137-14.560412l7.475212-13.000368h97.138751l-56.031587 97.060749z m7.475212-42.082192l-7.462212-12.922366 48.569376-84.112382 56.031587 97.034748z m40.158137-153.677352H502.45123l-48.556376-84.112382h257.771301z m-185.905265 14.612414l-80.290274 139.103939h-97.047748l128.859649-223.203321z m-80.199271 168.211764l80.303274 139.103939-48.582376 84.099382-128.859649-223.203321z m105.523988 153.664352h160.593548l48.569376 84.125382H453.907855z m185.905265-14.547412l80.316275-139.10394h97.138751l-128.950652 223.229322z m80.251273-168.250765l-80.316275-139.10394 48.569376-84.112382 128.87265 223.216322zM355.807077 148.022192l48.582375 84.086381-153.170337 265.298514h-97.125751z m0 727.916615L154.106364 526.540912h97.112751l153.144337 265.207511z m25.233714 14.573413l48.556375-84.112383h306.340676l48.556375 84.112383z m428.687141-14.547412l-48.569376-84.112382 153.183338-265.311514h97.138751z m104.600962-378.557721l-153.144337-265.298514 48.569375-84.125382 201.726713 349.423896z" p-id="6539" fill="#bfbfbf"></path></svg>