<?xml version="1.0" standalone="no"?><!DOCTYPE svg PUBLIC "-//W3C//DTD SVG 1.1//EN" "http://www.w3.org/Graphics/SVG/1.1/DTD/svg11.dtd"><svg t="1730446391011" class="icon" viewBox="0 0 1140 1024" version="1.1" xmlns="http://www.w3.org/2000/svg" p-id="1953" xmlns:xlink="http://www.w3.org/1999/xlink" width="222.65625" height="200"><path d="M287.040996 821.11687l11.100543 26.389969c6.105754 14.515394 31.589649 26.385416 56.631889 26.385415h397.925763c25.042241 0 51.951267-11.870022 59.814531-26.385415l14.283183-26.389969" fill="#856445" p-id="1954"></path><path d="M82.787372 617.245709s10.513188 16.832939 23.357581 37.417661c12.844393 20.575616 43.846687 37.408555 68.888929 37.408555h758.702499c25.042241 0 55.871516-17.693482 68.511018-39.307212l27.792334-47.534726" fill="#9E7F5D" p-id="1955"></path><path d="M536.370654 180.363326h32.732485V311.297821h-32.732485z" fill="#8C8C8C" p-id="1956"></path><path d="M236.432904 598.541432v-90.848697c0-49.970654 51.222766-90.848697 113.828368-90.848698h409.636425c62.605602 0 113.828368 40.882597 113.828368 90.848698v90.848697" fill="#C2A17E" p-id="1957"></path><path d="M1030.044286 605.22088c0 16.901236-20.489106 30.729106-45.531347 30.729107H124.311961c-25.042241 0-45.531347-13.82787-45.531347-30.729107s20.489106-30.729106 45.531347-30.729106h860.200978c25.042241 0 45.531347 13.82787 45.531347 30.729106z" fill="#C2A17E" p-id="1958"></path><path d="M20.045176 185.708706h347.249373l56.112832-12.033935h261.928182l53.440142 12.033935h382.112725a20.042899 20.042899 0 0 0 0-40.081245h-379.440035l-58.780969 12.029382H418.062001l-53.435589-12.029382H20.045176a20.038346 20.038346 0 0 0 0 40.081245z" fill="#8C8C8C" p-id="1959"></path><path d="M732.373997 360.731205v272.550645H381.47301v-272.550645l44.088004-69.476283h262.715874z" fill="#F2CBA7" p-id="1960"></path><path d="M616.223531 295.266234h-115.303584l-35.669258 110.887043h189.292023l-38.319181-110.887043z m59.413855 215.094637l-16.222819-92.182765h-199.026626L444.165122 510.360871l-0.614673 122.920979h232.70161l-0.614673-122.920979z" fill="#66A0AD" p-id="1961"></path><path d="M381.47301 360.731205l62.459902 12.958221-65.39212 259.592424z" fill="#C2A17E" p-id="1962"></path><path d="M505.008662 299.819369h103.866109l33.105843 106.333908h12.566652l-38.319182-110.887043h-115.303584l-35.669258 110.887043h8.937804l30.815616-106.333908z m170.628724 210.541502l-16.222819-92.182765h-199.026626L444.165122 510.360871l-0.614673 122.916426h9.78924l0.532717-118.363291 14.615562-92.182765h179.288786l14.620116 92.182765 0.532717 118.363291h13.322472l-0.614673-122.916426z" opacity=".16" p-id="1963"></path><path d="M732.373997 360.731205l-61.376256 15.243895 61.376256 257.30675z" fill="#C2A17E" p-id="1964"></path><path d="M287.040996 633.28185h539.755909v192.388154H287.040996z" fill="#9E7852" p-id="1965"></path><path d="M732.373997 633.28185H379.100827v-87.215296l24.846456-13.659404h304.358844l24.06787 13.659404z" fill="#F2CBA7" p-id="1966"></path><path d="M492.797154 693.410547h128.252699v0.978924h-128.252699z" fill="#FDD89F" p-id="1967"></path><path d="M492.797154 694.389471h128.252699v4.339137h-128.252699z" fill="#FCD79E" p-id="1968"></path><path d="M492.797154 698.728608h128.252699v4.320925h-128.252699z" fill="#FBD69D" p-id="1969"></path><path d="M492.797154 703.049533h128.252699v4.339138h-128.252699z" fill="#FBD59C" p-id="1970"></path><path d="M492.797154 707.393224h128.252699v4.339137h-128.252699z" fill="#FAD49B" p-id="1971"></path><path d="M492.797154 711.732361h128.252699v4.339137h-128.252699z" fill="#F9D39A" p-id="1972"></path><path d="M492.797154 716.071498h128.252699v4.339138h-128.252699z" fill="#F8D299" p-id="1973"></path><path d="M492.797154 720.410636h128.252699v4.339137h-128.252699z" fill="#F7D298" p-id="1974"></path><path d="M492.797154 724.749773h128.252699v4.320925h-128.252699z" fill="#F6D197" p-id="1975"></path><path d="M492.797154 729.070698h128.252699v4.339137h-128.252699z" fill="#F5D096" p-id="1976"></path><path d="M492.797154 733.409835h128.252699v4.339138h-128.252699z" fill="#F4CF95" p-id="1977"></path><path d="M492.797154 737.748973h128.252699v4.320925h-128.252699z" fill="#F4CE94" p-id="1978"></path><path d="M492.797154 742.074451h128.252699v4.339137h-128.252699z" fill="#F3CD93" p-id="1979"></path><path d="M492.797154 746.413588h128.252699v4.339138h-128.252699z" fill="#F2CC92" p-id="1980"></path><path d="M492.797154 750.752726h128.252699v4.339137h-128.252699z" fill="#F1CB91" p-id="1981"></path><path d="M492.797154 755.091863h128.252699v4.339137h-128.252699z" fill="#F0CA90" p-id="1982"></path><path d="M492.797154 759.431h128.252699v4.339138h-128.252699z" fill="#EFC98F" p-id="1983"></path><path d="M492.797154 763.770138h128.252699v4.320925h-128.252699z" fill="#EEC88E" p-id="1984"></path><path d="M492.797154 768.095616h128.252699v0.122934h-128.252699z" fill="#EDC78D" p-id="1985"></path><path d="M287.040996 633.28185l205.751605 60.124144v74.81711l-205.751605 57.4469zM621.049853 768.223104l205.747052 57.4469v-192.388154l-205.747052 60.124144z" fill="#BA9A7B" p-id="1986"></path><path d="M287.040996 633.28185l205.751605 60.124144h128.257252l205.747052-60.124144z" fill="#F2CBA7" p-id="1987"></path><path d="M524.345825 80.16249h60.119591v130.929942H524.345825z" fill="#8C8C8C" p-id="1988"></path><path d="M474.247683 197.728982h162.997671a32.063175 32.063175 0 0 0 0-64.12635h-162.997671c-17.711694 0-32.063175 14.356034-32.063174 32.063175s14.351481 32.063175 32.063174 32.063175zM671.976665 41.415313c0 22.779333-30.733659 41.419867-68.297021 41.419867h-103.888875c-37.563361 0-68.297021-18.63598-68.297021-41.419867 0-22.779333 30.733659-41.415313 68.297021-41.415313h103.888875c37.563361 0 68.297021 18.63598 68.297021 41.415313z" fill="#3F3F3F" p-id="1989"></path><path d="M721.405496 618.361227c0 41.506376-73.410191 67.140525-163.967488 67.140525-90.56185 0-163.976594-25.634149-163.976594-67.140525 0-41.510929 73.414744-59.122454 163.976594-59.122454 90.557297-0.004553 163.967488 17.611525 163.967488 59.122454z" fill="#C2A17E" p-id="1990"></path><path d="M552.35671 726.088395m-67.217928 0a67.217928 67.217928 0 1 0 134.435856 0 67.217928 67.217928 0 1 0-134.435856 0Z" fill="#F2CBA7" p-id="1991"></path><path d="M552.35671 804.68916c-43.341289 0-78.600765-35.259475-78.600765-78.605318 0-43.341289 35.259475-78.596212 78.600765-78.596212s78.600765 35.254922 78.600764 78.596212c-0.004553 43.345843-35.264028 78.605318-78.600764 78.605318z m0-134.435856c-30.788297 0-55.835091 25.046794-55.835091 55.830538 0 30.79285 25.046794 55.839644 55.835091 55.839644s55.835091-25.046794 55.835091-55.839644c-0.004553-30.783744-25.051347-55.830538-55.835091-55.830538z" fill="#917657" p-id="1992"></path><path d="M464.895545 295.808057l10.69076-20.038346c5.878097-11.023139 31.175313-20.038346 56.217555-20.038346h49.223939c25.042241 0 50.344011 9.015207 56.222108 20.038346l10.69076 20.038346" fill="#F2CBA7" p-id="1993"></path><path d="M307.625718 493.377679m-32.441085 0a32.441085 32.441085 0 1 0 64.88217 0 32.441085 32.441085 0 1 0-64.88217 0Z" fill="#382611" opacity=".83" p-id="1994"></path><path d="M603.843557 121.331934h-98.866767a9.106269 9.106269 0 0 1 0-18.212539h98.866767a9.106269 9.106269 0 0 1 0 18.212539z" fill="#3F3F3F" p-id="1995"></path><path d="M418.062001 157.65229h267.278115v16.031587H418.062001z" fill="#8C8C8C" p-id="1996"></path><path d="M207.037866 756.102659a15.935972 15.935972 0 0 1-15.935972-15.935972v-77.494353a15.935972 15.935972 0 1 1 31.871943 0v77.494353a15.935972 15.935972 0 0 1-15.935971 15.935972z" fill="#917657" p-id="1997"></path><path d="M204.369729 746.846136m-60.119591 0a60.119591 60.119591 0 1 0 120.239182 0 60.119591 60.119591 0 1 0-120.239182 0Z" fill="#9E7F5D" p-id="1998"></path><path d="M910.460756 756.102659a15.935972 15.935972 0 0 1-15.935972-15.935972v-77.494353a15.935972 15.935972 0 1 1 31.871943 0v77.494353a15.935972 15.935972 0 0 1-15.935971 15.935972z" fill="#917657" p-id="1999"></path><path d="M907.788066 746.846136m-60.119591 0a60.119591 60.119591 0 1 0 120.239182 0 60.119591 60.119591 0 1 0-120.239182 0Z" fill="#9E7F5D" p-id="2000"></path><path d="M503.929569 837.694833h95.615829v76.160285h-95.615829z" p-id="2001"></path><path d="M551.737483 975.358862a22.765674 22.765674 0 0 1-22.765673-22.765674v-38.742623a22.765674 22.765674 0 1 1 45.531347 0v38.742623a22.765674 22.765674 0 0 1-22.765674 22.765674z" p-id="2002"></path><path d="M337.30305 1019.442312a31.871943 31.871943 0 0 1-31.871943-31.871943v-74.502943a31.871943 31.871943 0 1 1 63.743886 0v74.502943a31.871943 31.871943 0 0 1-31.871943 31.871943z" p-id="2003"></path><path d="M774.403984 1023.995447a31.871943 31.871943 0 0 1-31.871943-31.871943v-74.502944a31.871943 31.871943 0 1 1 63.743886 0v74.502944a31.871943 31.871943 0 0 1-31.871943 31.871943z" p-id="2004"></path><path d="M796.705238 494.374815m-32.441085 0a32.441085 32.441085 0 1 0 64.88217 0 32.441085 32.441085 0 1 0-64.88217 0Z" fill="#382611" p-id="2005"></path><path d="M708.306127 532.40715l24.06787 100.8747v-87.215296z" fill="#8B6F51" opacity=".65" p-id="2006"></path><path d="M403.947283 532.40715l-24.846456 100.8747v-87.215296z" fill="#FFE8CF" opacity=".67" p-id="2007"></path><path d="M337.30305 969.039111a11.382837 11.382837 0 0 1-11.382837-11.382837v-91.062695a11.382837 11.382837 0 1 1 22.765674 0v91.062695a11.382837 11.382837 0 0 1-11.382837 11.382837z" p-id="2008"></path><path d="M774.403984 969.039111a11.382837 11.382837 0 0 1-11.382837-11.382837v-91.062695a11.382837 11.382837 0 1 1 22.765674 0v91.062695a11.382837 11.382837 0 0 1-11.382837 11.382837z" p-id="2009"></path><path d="M201.464829 747.451703m-22.765674 0a22.765674 22.765674 0 1 0 45.531348 0 22.765674 22.765674 0 1 0-45.531348 0Z" fill="#E4BC96" opacity=".49" p-id="2010"></path><path d="M907.788066 746.841583m-22.765674 0a22.765674 22.765674 0 1 0 45.531348 0 22.765674 22.765674 0 1 0-45.531348 0Z" fill="#E4BC96" opacity=".49" p-id="2011"></path></svg>