<?xml version="1.0" standalone="no"?><!DOCTYPE svg PUBLIC "-//W3C//DTD SVG 1.1//EN" "http://www.w3.org/Graphics/SVG/1.1/DTD/svg11.dtd"><svg t="1730446544265" class="icon" viewBox="0 0 1253 1024" version="1.1" xmlns="http://www.w3.org/2000/svg" p-id="1752" xmlns:xlink="http://www.w3.org/1999/xlink" width="244.7265625" height="200"><path d="M650.510584 380.595667H256.289921a20.434941 20.434941 0 0 1 0-40.869882h394.220663a20.434941 20.434941 0 0 1 0 40.869882z" fill="#6E6E96" p-id="1753"></path><path d="M533.801528 325.150563h116.709056v68.436617h-116.709056z" fill="#A5C2BA" p-id="1754"></path><path d="M650.510584 414.017012h-116.709056a20.434941 20.434941 0 0 1-20.434941-20.43494V325.150563a20.434941 20.434941 0 0 1 20.434941-20.434941h116.709056a20.434941 20.434941 0 0 1 20.434941 20.434941v68.436617a20.434941 20.434941 0 0 1-20.434941 20.429832z m-96.274115-40.869881h75.839174v-27.566736h-75.839174v27.566736z" fill="#6E6E96" p-id="1755"></path><path d="M783.3377 222.229983h117.500911v73.228611h-117.500911z" fill="#A5C2BA" p-id="1756"></path><path d="M900.838611 275.023653h-117.500911a20.434941 20.434941 0 0 1 20.434941 20.434941V222.229983a20.434941 20.434941 0 0 1-20.434941 20.434941h117.500911a20.434941 20.434941 0 0 1-20.434941-20.434941v73.228611a20.434941 20.434941 0 0 1 20.434941-20.434941z m0-73.228611h-117.500911a20.434941 20.434941 0 0 0-20.434941 20.434941v73.228611a20.434941 20.434941 0 0 0 20.434941 20.434941h117.500911a20.434941 20.434941 0 0 0 20.434941-20.434941V222.229983a20.434941 20.434941 0 0 0-20.434941-20.434941z" fill="#6E6E96" p-id="1757"></path><path d="M1186.927784 661.581213v132.827117l-84.294131 84.294131h-768.864654l-249.050843-223.507167z" fill="#879994" p-id="1758"></path><path d="M1166.492843 661.581213v132.827117c0-5.425477 2.155886-10.615952 5.987438-14.447504l-84.294131 84.294132a20.460485 20.460485 0 0 1 14.447503-5.987438h-768.864654c5.420368 0 10.615952 2.155886 14.452612 5.987438l-249.050843-223.507167a20.424723 20.424723 0 0 1-14.570112 34.882444l1102.209627 6.385919a20.434941 20.434941 0 0 1-20.31744-20.434941z m-1091.118563 8.061585l243.942107 223.507166A20.445158 20.445158 0 0 0 333.768999 899.137402h768.864654a20.424723 20.424723 0 0 0 14.447503-5.987438l84.294131-84.294131a20.460485 20.460485 0 0 0 5.987438-14.447503v-132.827117c0-11.239218-9.062896-20.368527-20.31744-20.434941l-1102.209628-6.385919c-8.286369-0.056196-10.672148 4.914603-13.865107 12.56238a20.424723 20.424723 0 0 0 4.40373 22.320065z" fill="#6E6E96" p-id="1759"></path><path d="M1232.906401 661.581213H64.712349L20.434941 619.005014 257.137971 457.231804h975.76843z" fill="#A5C2BA" p-id="1760"></path><path d="M1232.906401 641.146272H64.712349c5.282432 0 10.355406 2.033277 14.161414 5.706458l-44.277408-42.5762a20.39918 20.39918 0 0 1 6.038525 17.788616 20.475811 20.475811 0 0 1-11.06552 15.218923l236.703029-161.778319a20.562659 20.562659 0 0 1-9.139527 2.155886h975.768431a20.434941 20.434941 0 0 1-20.434941-20.434941v204.34941a20.44005 20.44005 0 0 1 20.440049-20.429833z m0-204.349409h-975.76843c-3.172525 0-6.299071 0.740767-9.139528 2.155886L11.295414 600.725959a20.434941 20.434941 0 0 0-5.026996 33.007539l44.277408 42.576199a20.424723 20.424723 0 0 0 14.161415 5.706457h1168.19916a20.434941 20.434941 0 0 0 20.434941-20.434941v-204.349409a20.434941 20.434941 0 0 0-20.434941-20.434941z" fill="#6E6E96" p-id="1761"></path><path d="M1019.003657 882.636187m-120.903328 0a120.903328 120.903328 0 1 0 241.806656 0 120.903328 120.903328 0 1 0-241.806656 0Z" fill="#E0BAB5" p-id="1762"></path><path d="M1019.003657 782.1678c26.841295 0 52.058012 10.452472 71.042072 29.431424a99.814469 99.814469 0 0 1 29.426315 71.042072c0 55.404234-45.064154 100.463278-100.468387 100.463278-55.399125 0-100.468387-45.059045-100.468387-100.463278s45.074371-100.473496 100.468387-100.473496z m-141.338269 100.473496c0 77.933756 63.409622 141.33316 141.338269 141.33316 77.938865 0 141.338269-63.399404 141.338269-141.33316 0-37.753553-14.697831-73.249046-41.40119-99.937079-26.708468-26.703359-62.188634-41.40119-99.942188-41.40119-77.923539-0.005109-141.33316 63.399404-141.33316 141.338269z" fill="#6E6E96" p-id="1763"></path><path d="M1018.421261 884.393592m-49.135815 0a49.135816 49.135816 0 1 0 98.271631 0 49.135816 49.135816 0 1 0-98.271631 0Z" fill="#A5C2BA" p-id="1764"></path><path d="M1018.421261 855.692718a28.726418 28.726418 0 0 1 28.700875 28.690657c0 15.837079-12.879122 28.700875-28.700875 28.700874s-28.700875-12.879122-28.700874-28.700874a28.72131 28.72131 0 0 1 28.700874-28.690657z m-69.575865 28.700874c0 38.37171 31.204155 69.570756 69.570756 69.570757 38.361493 0 69.565648-31.199046 69.565648-69.570757 0-38.366602-31.204155-69.560539-69.565648-69.560539-38.366602-0.010217-69.570756 31.193937-69.570756 69.560539z" fill="#6E6E96" p-id="1765"></path><path d="M1032.393652 773.304144c46.285141 8.720611 81.300413 49.314621 81.300413 98.133696 0 55.174341-44.721868 99.896209-99.896209 99.896208-55.169232 0-99.880883-44.721868-99.880883-99.896208 0-19.050474 5.33352-36.854416 14.58033-52.012034a107.237461 107.237461 0 0 0-18.626448 60.553839c0 59.491222 48.216243 107.707465 107.707465 107.707465 59.481004 0 107.707465-48.216243 107.707465-107.707465 0.025544-54.459118-40.410096-99.461966-92.892133-106.675501z" fill="#6E6E96" opacity=".15" p-id="1766"></path><path d="M694.818645 882.636187m-120.903328 0a120.903328 120.903328 0 1 0 241.806656 0 120.903328 120.903328 0 1 0-241.806656 0Z" fill="#E0BAB5" p-id="1767"></path><path d="M694.818645 782.1678c55.399125 0 100.468387 45.069262 100.468387 100.468387 0 55.404234-45.069262 100.468387-100.468387 100.468387s-100.473496-45.064154-100.473496-100.468387c0.005109-55.399125 45.07948-100.468387 100.473496-100.468387z m-141.33316 100.468387c0 77.933756 63.399404 141.338269 141.338269 141.338269s141.338269-63.404513 141.338269-141.338269-63.399404-141.338269-141.338269-141.338269-141.338269 63.404513-141.338269 141.338269z" fill="#6E6E96" p-id="1768"></path><path d="M694.23114 884.388483m-49.135815 0a49.135816 49.135816 0 1 0 98.271631 0 49.135816 49.135816 0 1 0-98.271631 0Z" fill="#A5C2BA" p-id="1769"></path><path d="M694.23114 855.687609c15.837079 0 28.705983 12.874013 28.705984 28.685548 0 15.842188-12.879122 28.705983-28.705984 28.705983s-28.695766-12.879122-28.695766-28.705983a28.72131 28.72131 0 0 1 28.695766-28.685548z m-69.570756 28.700874c0 38.37171 31.204155 69.570756 69.565648 69.570757 38.366602 0 69.570756-31.199046 69.570756-69.570757 0-38.366602-31.204155-69.560539-69.570756-69.560539-38.361493-0.010217-69.565648 31.199046-69.565648 69.560539z" fill="#6E6E96" p-id="1770"></path><path d="M708.198422 773.304144c46.29025 8.720611 81.31063 49.309513 81.310631 98.133696 0 55.174341-44.721868 99.8911-99.901318 99.8911-55.164123 0-99.880883-44.71676-99.880883-99.8911 0-19.050474 5.338628-36.854416 14.590548-52.012034a107.181265 107.181265 0 0 0-18.62134 60.54873c0 59.491222 48.216243 107.707465 107.707465 107.707465 59.486113 0 107.702356-48.216243 107.702357-107.707465 0.015326-54.459118-40.420313-99.456858-92.90746-106.670392z" fill="#6E6E96" opacity=".15" p-id="1771"></path><path d="M365.463593 882.636187m-120.903328 0a120.903328 120.903328 0 1 0 241.806656 0 120.903328 120.903328 0 1 0-241.806656 0Z" fill="#E0BAB5" p-id="1772"></path><path d="M365.463593 782.1678c55.399125 0 100.468387 45.069262 100.468387 100.473496 0 26.836186-10.452472 52.058012-29.426315 71.036963a99.814469 99.814469 0 0 1-71.042072 29.426315c-55.399125 0-100.468387-45.059045-100.468387-100.463278s45.069262-100.473496 100.468387-100.473496z m-141.338269 100.473496c0 77.933756 63.404513 141.33316 141.338269 141.33316 37.753553 0 73.243937-14.70294 99.942187-41.40119 26.69825-26.703359 41.40119-62.183525 41.401191-99.942188 0-77.938865-63.404513-141.343378-141.338269-141.343377s-141.343378 63.414731-141.343378 141.353595z" fill="#6E6E96" p-id="1773"></path><path d="M364.870979 884.393592m-49.135815 0a49.135816 49.135816 0 1 0 98.271631 0 49.135816 49.135816 0 1 0-98.271631 0Z" fill="#A5C2BA" p-id="1774"></path><path d="M364.870979 855.692718a28.731527 28.731527 0 0 1 28.700875 28.690657c0 15.837079-12.879122 28.700875-28.700875 28.700874a28.736636 28.736636 0 0 1-28.700874-28.700874 28.731527 28.731527 0 0 1 28.700874-28.690657z m-69.570756 28.700874c0 38.37171 31.209264 69.570756 69.570756 69.570757s69.570756-31.199046 69.570757-69.570757c0-38.366602-31.209264-69.560539-69.570757-69.560539-38.361493-0.010217-69.570756 31.193937-69.570756 69.560539z" fill="#6E6E96" p-id="1775"></path><path d="M378.848479 773.304144c46.285141 8.720611 81.305521 49.314621 81.305521 98.133696 0 55.174341-44.721868 99.896209-99.8911 99.896208s-99.880883-44.721868-99.880882-99.896208c0-19.050474 5.33352-36.854416 14.590547-52.012034a107.232353 107.232353 0 0 0-18.621339 60.553839c0 59.491222 48.221352 107.707465 107.707465 107.707465 59.481004 0 107.707465-48.216243 107.707465-107.707465 0-54.459118-40.435639-99.461966-92.917677-106.675501z" fill="#6E6E96" opacity=".15" p-id="1776"></path><path d="M650.510584 285.236015l415.513872 0.005108L1088.160606 360.165834l-458.084963-0.005108z" fill="#A5C2BA" p-id="1777"></path><path d="M650.510584 305.670956l415.513872 0.005108a20.445158 20.445158 0 0 1-19.597108-14.641635l22.141258 74.924711a20.475811 20.475811 0 0 1 3.223612-18.023618 20.434941 20.434941 0 0 1 16.373497-8.194411l-458.090072-0.010218a20.486028 20.486028 0 0 1 16.250887 8.025823 20.409397 20.409397 0 0 1 3.479049 17.77329l20.434941-74.924711a20.465593 20.465593 0 0 1-19.729936 15.065661z m-20.434941 74.924711L1088.160606 380.600775a20.434941 20.434941 0 0 0 19.597108-26.21292L1085.616456 279.447818a20.429832 20.429832 0 0 0-19.597109-14.641636l-415.513872-0.005108a20.409397 20.409397 0 0 0-19.7095 15.050334l-20.434941 74.919602a20.424723 20.424723 0 0 0 3.479049 17.778399 20.383854 20.383854 0 0 0 16.23556 8.046258z" fill="#6E6E96" p-id="1778"></path><path d="M630.075643 360.160726h458.090072V457.231804h-458.090072z" fill="#879994" p-id="1779"></path><path d="M1088.160606 436.796863h-458.090072a20.434941 20.434941 0 0 1 20.434941 20.434941V360.160726a20.434941 20.434941 0 0 1-20.434941 20.434941H1088.160606a20.434941 20.434941 0 0 1-20.434941-20.434941V457.231804a20.434941 20.434941 0 0 1 20.434941-20.434941z m0-97.071078h-458.090072a20.434941 20.434941 0 0 0-20.43494 20.434941V457.231804a20.434941 20.434941 0 0 0 20.43494 20.434941H1088.160606a20.434941 20.434941 0 0 0 20.434941-20.434941V360.160726a20.434941 20.434941 0 0 0-20.434941-20.434941z" fill="#6E6E96" p-id="1780"></path><path d="M122.609646 663.287531h1055.806985V717.777301H122.609646zM34.596355 614.494001h1198.310046v47.087212H34.596355z" fill="#6E6E96" opacity=".2" p-id="1781"></path><path d="M216.554178 500.369964h995.917282V477.666745h-955.333489z" fill="#FFFFFF" opacity=".33" p-id="1782"></path><path d="M650.510584 380.595667h137.220629V436.796863h-137.220629z" fill="#A5C2BA" opacity=".45" p-id="1783"></path><path d="M924.681078 380.600775h143.044587v56.196088h-143.044587z" fill="#6E6E96" opacity=".2" p-id="1784"></path><path d="M267.355441 500.369964l-192.200837 114.124037 141.399574-114.124037z" fill="#FFFFFF" opacity=".33" p-id="1785"></path><path d="M785.892068 339.730893v-34.059937h-121.879097l-7.182881 34.054829z" fill="#FFFFFF" opacity=".33" p-id="1786"></path><path d="M918.719184 339.725785v-34.054829h132.025045l10.064208 34.054829z" fill="#6E6E96" opacity=".2" p-id="1787"></path><path d="M1181.819049 500.369964h30.652411v114.134254h-30.652411z" fill="#6E6E96" opacity=".2" p-id="1788"></path><path d="M803.772641 242.664924h30.729043v22.13615h-30.729043z" fill="#FFFFFF" opacity=".33" p-id="1789"></path><path d="M267.355441 500.369964l-125.884345 114.124037H75.154604z" fill="#6E6E96" opacity=".2" p-id="1790"></path><path d="M180.179983 579.402098h1001.639066v35.091903H141.471096z" fill="#6E6E96" opacity=".2" p-id="1791"></path></svg>