<?xml version="1.0" standalone="no"?><!DOCTYPE svg PUBLIC "-//W3C//DTD SVG 1.1//EN" "http://www.w3.org/Graphics/SVG/1.1/DTD/svg11.dtd"><svg t="1730447458823" class="icon" viewBox="0 0 1024 1024" version="1.1" xmlns="http://www.w3.org/2000/svg" p-id="2196" xmlns:xlink="http://www.w3.org/1999/xlink" width="200" height="200"><path d="M224 875.648a96 96 0 0 1-96-96H46.08a14.08 14.08 0 0 1-14.08-14.08v-177.92H640v44.8a19.2 19.2 0 0 0 19.2 19.2h12.8v-364.8a19.2 19.2 0 0 1 19.2-19.2h187.072a25.6 25.6 0 0 1 23.936 16.64l86.528 230.656a51.2 51.2 0 0 1 3.264 17.984v174.592a51.2 51.2 0 0 1-2.56 15.872l-12.544 38.592a25.6 25.6 0 0 1-24.32 17.664H928a96 96 0 0 1-192 0H576a96 96 0 0 1-192 0H320a96 96 0 0 1-96 96zM832 734.72a44.8 44.8 0 1 0 0 89.6 44.8 44.8 0 0 0 0-89.6z m-352 0a44.8 44.8 0 1 0 0 89.6 44.8 44.8 0 0 0 0-89.6z m-256 0a44.8 44.8 0 1 0 0 89.6 44.8 44.8 0 0 0 0-89.6z m117.12-481.92l64 110.848-27.712 16-24-41.6-27.712 16 24 41.6-61.696 35.584v92.416H640v32H32v-32h192v-55.424l-79.36 45.824a19.2 19.2 0 0 1-26.24-7.04l-44.8-77.568a19.2 19.2 0 0 1 7.04-26.24l205.056-118.4 24 41.536 27.712-16-24-41.536 27.712-16z m506.88 78.848H768v128h128l-48-128zM632.064 195.456l9.664 2.048c-6.016 22.4-20.608 41.472-40.704 53.056L443.904 341.248a12.8 12.8 0 0 1-17.472-4.672l-12.8-22.144a12.8 12.8 0 0 1 4.672-17.536l157.12-90.688c17.216-9.92 37.184-13.632 56.64-10.752z m-38.4-66.496l9.664 2.048c-6.016 22.4-20.608 41.472-40.704 53.056L405.504 274.752a12.8 12.8 0 0 1-17.472-4.672l-12.8-22.208a12.8 12.8 0 0 1 4.672-17.472l157.12-90.688c17.216-9.92 37.184-13.632 56.64-10.752z" p-id="2197" fill="#ffffff"></path></svg>