<?xml version="1.0" standalone="no"?><!DOCTYPE svg PUBLIC "-//W3C//DTD SVG 1.1//EN" "http://www.w3.org/Graphics/SVG/1.1/DTD/svg11.dtd"><svg t="1730447751737" class="icon" viewBox="0 0 1024 1024" version="1.1" xmlns="http://www.w3.org/2000/svg" p-id="13167" xmlns:xlink="http://www.w3.org/1999/xlink" width="200" height="200"><path d="M82.668308 464.896c36.785231-3.347692 73.531077-6.222769 109.843692-10.515692a35.209846 35.209846 0 0 0 19.101538-12.406154 112.994462 112.994462 0 0 1 107.913847-38.203077 166.636308 166.636308 0 0 0 26.742153 0v-5.238154c-14.808615-0.945231-29.617231-0.472615-43.95323-2.402461-13.390769-1.417846-26.269538-5.238154-40.605539-8.113231 1.417846-1.417846 2.402462-3.938462 3.347693-3.938462l82.156307-7.168c28.672-2.402462 56.832-4.292923 85.464616-6.695384a25.639385 25.639385 0 0 1 27.56923 13.390769 39.108923 39.108923 0 0 0 41.078154 20.519384c130.835692-0.945231 261.710769-0.472615 392.546462-0.472615a19.140923 19.140923 0 0 1 21.504 15.281231c7.640615 21.504 17.211077 42.023385 26.269538 63.015384v10.043077c-6.695385 23.394462-13.863385 46.788923-20.046769 70.183385a65.614769 65.614769 0 0 1-59.076923 39.148308 78.375385 78.375385 0 0 0-64.945231-78.769231 79.635692 79.635692 0 0 0-95.035077 59.076923 81.998769 81.998769 0 0 0-89.284923-60.179692c-37.730462 3.938462-60.179692 28.672-71.640615 80.226461h-30.089846a80.305231 80.305231 0 0 0-76.406154-80.226461 79.005538 79.005538 0 0 0-84.046769 61.124923 81.762462 81.762462 0 0 0-94.089847-60.179693c-34.382769 4.765538-56.359385 30.089846-66.953846 76.87877-13.390769-16.699077-26.269538-31.980308-38.675692-47.261539-20.046769-24.851692-39.620923-49.664-59.707077-74.515692a81.880615 81.880615 0 0 0-9.570462-8.585846 16.462769 16.462769 0 0 0 0.59077-4.017231z" p-id="13168" fill="#ffffff"></path><path d="M338.668308 600.024615a65.890462 65.890462 0 1 1-65.890462-65.417846 65.024 65.024 0 0 1 65.890462 65.417846z m286.523077 66.363077a65.929846 65.929846 0 1 1-1.929847-131.820307 65.929846 65.929846 0 0 1 1.929847 131.820307z m223.507692-65.417846a65.890462 65.890462 0 1 1-65.417846-66.363077 65.181538 65.181538 0 0 1 65.378461 66.363077z m-417.870769-65.890461a65.890462 65.890462 0 1 1-65.890462 65.890461 65.142154 65.142154 0 0 1 65.890462-65.890461z" p-id="13169" fill="#ffffff"></path></svg>